<?xml version="1.0" standalone="no"?>
<!DOCTYPE svg PUBLIC "-//W3C//DTD SVG 20010904//EN"
 "http://www.w3.org/TR/2001/REC-SVG-20010904/DTD/svg10.dtd">
<svg version="1.0" xmlns="http://www.w3.org/2000/svg"
 width="768.000000pt" height="768.000000pt" viewBox="0 0 768.000000 768.000000"
 preserveAspectRatio="xMidYMid meet">
<metadata>
Created by potrace 1.14, written by Peter Selinger 2001-2017
</metadata>
<g transform="translate(0.000000,768.000000) scale(0.100000,-0.100000)"
fill="#000000" stroke="none">
<path d="M3540 7669 c-893 -70 -1686 -430 -2334 -1059 -642 -623 -1053 -1456
-1163 -2360 -21 -179 -24 -629 -5 -795 48 -402 142 -773 284 -1110 728 -1739
2622 -2686 4453 -2229 1087 271 2008 1017 2503 2027 338 689 460 1467 352
2237 -175 1244 -952 2325 -2080 2891 -621 311 -1328 451 -2010 398z m650 -240
c697 -63 1364 -332 1925 -779 164 -130 421 -387 551 -550 454 -570 717 -1225
783 -1950 23 -252 12 -591 -29 -862 -95 -627 -363 -1226 -779 -1738 -116 -143
-370 -395 -516 -511 -581 -463 -1237 -726 -1975 -790 -169 -15 -582 -6 -740
15 -836 114 -1555 473 -2130 1062 -522 535 -857 1198 -979 1939 -33 201 -45
350 -45 580 0 503 86 926 276 1364 209 480 458 851 808 1201 290 291 563 489
920 666 456 226 872 330 1480 368 79 5 316 -3 450 -15z"/>
<path d="M2845 5669 c-144 -100 -176 -145 -239 -333 -55 -165 -70 -265 -69
-466 0 -151 4 -203 21 -283 28 -126 72 -258 116 -345 52 -103 162 -202 225
-202 67 0 189 77 237 150 39 59 93 197 124 316 78 300 58 621 -56 906 -20 51
-48 110 -63 130 -24 34 -125 115 -196 157 l-30 18 -70 -48z"/>
<path d="M4791 5688 c-53 -15 -171 -139 -208 -218 -42 -90 -79 -205 -105 -324
-31 -145 -31 -417 0 -562 50 -231 108 -362 207 -460 115 -117 181 -122 291
-21 79 72 125 147 167 274 92 278 106 533 46 827 -39 191 -101 311 -218 419
-49 46 -105 78 -133 76 -7 0 -28 -5 -47 -11z"/>
<path d="M1437 3366 c-48 -18 -109 -68 -186 -155 l-63 -71 44 -18 c23 -10 63
-27 88 -36 44 -17 53 -30 410 -563 347 -520 368 -549 460 -635 374 -353 845
-577 1375 -654 165 -24 486 -24 650 0 756 111 1376 523 1801 1198 73 116 205
380 255 509 l33 85 123 58 c68 33 123 62 123 66 0 15 -103 130 -148 165 -59
46 -138 69 -206 61 -123 -16 -226 -39 -226 -51 0 -6 20 -58 45 -115 25 -57 45
-109 45 -116 0 -24 -78 -210 -136 -325 -362 -723 -1001 -1198 -1759 -1310
-133 -20 -434 -17 -575 5 -673 105 -1249 470 -1622 1028 -82 122 -205 365
-252 498 l-33 95 44 119 c24 66 42 125 39 131 -5 13 -183 45 -248 45 -24 -1
-60 -7 -81 -14z"/>
</g>
</svg>
